<svg xmlns="http://www.w3.org/2000/svg" width="240" height="76" fill="none"><path fill="red" d="M212 26h-3v3h3v-3ZM212 29h-3v3h3v-3ZM215 32h-3v3h3v-3ZM218 29h-3v3h3v-3ZM215 26h-3v3h3v-3ZM209 29h-3v3h3v-3ZM209 32h-3v3h3v-3ZM209 35h-3v3h3v-3ZM218 26h-3v3h3v-3ZM212 35h-3v3h3v-3ZM212 38h-3v3h3v-3ZM215 35h-3v3h3v-3ZM215 38h-3v3h3v-3ZM215 41h-3v3h3v-3ZM218 35h-3v3h3v-3ZM218 32h-3v3h3v-3ZM218 41h-3v3h3v-3ZM218 38h-3v3h3v-3ZM218 44h-3v3h3v-3ZM227 26h3v3h-3v-3ZM227 29h3v3h-3v-3ZM224 29h3v3h-3v-3ZM227 32h3v3h-3v-3ZM224 32h3v3h-3v-3ZM221 29h3v3h-3v-3ZM224 26h3v3h-3v-3ZM230 29h3v3h-3v-3ZM230 32h3v3h-3v-3ZM230 35h3v3h-3v-3ZM221 26h3v3h-3v-3ZM227 35h3v3h-3v-3ZM227 38h3v3h-3v-3ZM224 35h3v3h-3v-3ZM224 38h3v3h-3v-3ZM224 41h3v3h-3v-3ZM221 35h3v3h-3v-3ZM221 32h3v3h-3v-3ZM221 41h3v3h-3v-3ZM221 38h3v3h-3v-3ZM221 44h3v3h-3v-3ZM221 29h-3v3h3v-3ZM221 35h-3v3h3v-3ZM221 32h-3v3h3v-3ZM221 41h-3v3h3v-3ZM221 38h-3v3h3v-3ZM221 44h-3v3h3v-3ZM221 47h-3v3h3v-3ZM172 26h-3v3h3v-3ZM172 29h-3v3h3v-3ZM175 32h-3v3h3v-3ZM178 29h-3v3h3v-3ZM175 26h-3v3h3v-3ZM169 29h-3v3h3v-3ZM169 32h-3v3h3v-3ZM169 35h-3v3h3v-3ZM178 26h-3v3h3v-3ZM172 35h-3v3h3v-3ZM172 38h-3v3h3v-3ZM175 35h-3v3h3v-3ZM175 38h-3v3h3v-3ZM175 41h-3v3h3v-3ZM178 35h-3v3h3v-3ZM178 32h-3v3h3v-3ZM178 41h-3v3h3v-3ZM178 38h-3v3h3v-3ZM178 44h-3v3h3v-3ZM187 26h3v3h-3v-3ZM187 29h3v3h-3v-3ZM184 29h3v3h-3v-3ZM187 32h3v3h-3v-3ZM184 32h3v3h-3v-3ZM181 29h3v3h-3v-3ZM184 26h3v3h-3v-3ZM190 29h3v3h-3v-3ZM196 33h3v3h-3v-3ZM187 47h3v3h-3v-3ZM178 53h3v3h-3v-3ZM169 47h3v3h-3v-3ZM184 20h3v3h-3v-3ZM193 23h3v3h-3v-3ZM163 23h3v3h-3v-3ZM172 20h3v3h-3v-3ZM160 33h3v3h-3v-3ZM190 32h3v3h-3v-3ZM190 35h3v3h-3v-3ZM181 26h3v3h-3v-3ZM187 35h3v3h-3v-3ZM187 38h3v3h-3v-3ZM184 35h3v3h-3v-3ZM184 38h3v3h-3v-3ZM184 41h3v3h-3v-3ZM181 35h3v3h-3v-3ZM181 32h3v3h-3v-3ZM181 41h3v3h-3v-3ZM181 38h3v3h-3v-3ZM181 44h3v3h-3v-3ZM181 29h-3v3h3v-3ZM181 35h-3v3h3v-3ZM181 32h-3v3h3v-3ZM181 41h-3v3h3v-3ZM181 38h-3v3h3v-3ZM181 44h-3v3h3v-3ZM181 47h-3v3h3v-3ZM132 26h-3v3h3v-3ZM129 26h-3v3h3v-3ZM132 29h-3v3h3v-3ZM135 32h-3v3h3v-3ZM138 29h-3v3h3v-3ZM135 26h-3v3h3v-3ZM129 29h-3v3h3v-3ZM129 32h-3v3h3v-3ZM129 35h-3v3h3v-3ZM126 29h-3v3h3v-3ZM126 32h-3v3h3v-3ZM126 35h-3v3h3v-3ZM138 26h-3v3h3v-3ZM132 35h-3v3h3v-3ZM132 38h-3v3h3v-3ZM135 35h-3v3h3v-3ZM135 38h-3v3h3v-3ZM135 41h-3v3h3v-3ZM138 35h-3v3h3v-3ZM138 32h-3v3h3v-3ZM138 41h-3v3h3v-3ZM138 38h-3v3h3v-3ZM138 44h-3v3h3v-3ZM147 26h3v3h-3v-3ZM150 26h3v3h-3v-3ZM147 29h3v3h-3v-3ZM144 29h3v3h-3v-3ZM147 32h3v3h-3v-3ZM144 32h3v3h-3v-3ZM141 29h3v3h-3v-3ZM144 26h3v3h-3v-3ZM150 29h3v3h-3v-3ZM153 29h3v3h-3v-3ZM153 32h3v3h-3v-3ZM153 35h3v3h-3v-3ZM150 32h3v3h-3v-3ZM150 35h3v3h-3v-3ZM141 26h3v3h-3v-3ZM132 23h-3v3h3v-3ZM135 23h-3v3h3v-3ZM138 23h-3v3h3v-3ZM147 23h3v3h-3v-3ZM144 23h3v3h-3v-3ZM141 23h3v3h-3v-3ZM147 35h3v3h-3v-3ZM147 38h3v3h-3v-3ZM144 35h3v3h-3v-3ZM144 38h3v3h-3v-3ZM144 41h3v3h-3v-3ZM141 35h3v3h-3v-3ZM141 32h3v3h-3v-3ZM141 41h3v3h-3v-3ZM141 38h3v3h-3v-3ZM141 44h3v3h-3v-3ZM141 29h-3v3h3v-3ZM141 26h-3v3h3v-3ZM141 35h-3v3h3v-3ZM141 32h-3v3h3v-3ZM141 41h-3v3h3v-3ZM141 38h-3v3h3v-3ZM141 44h-3v3h3v-3ZM141 47h-3v3h3v-3ZM141 50h-3v3h3v-3ZM150 38h3v3h-3v-3ZM147 41h3v3h-3v-3ZM144 44h3v3h-3v-3ZM144 47h-3v3h3v-3ZM129 38h-3v3h3v-3ZM132 41h-3v3h3v-3ZM135 44h-3v3h3v-3ZM138 47h-3v3h3v-3ZM92 26h-3v3h3v-3ZM92 29h-3v3h3v-3ZM95 32h-3v3h3v-3ZM98 29h-3v3h3v-3ZM95 26h-3v3h3v-3ZM89 29h-3v3h3v-3ZM89 32h-3v3h3v-3ZM89 35h-3v3h3v-3ZM98 26h-3v3h3v-3ZM92 35h-3v3h3v-3ZM92 38h-3v3h3v-3ZM95 35h-3v3h3v-3ZM95 38h-3v3h3v-3ZM95 41h-3v3h3v-3ZM98 35h-3v3h3v-3ZM98 32h-3v3h3v-3ZM98 41h-3v3h3v-3ZM98 38h-3v3h3v-3ZM98 44h-3v3h3v-3ZM107 26h3v3h-3v-3ZM107 29h3v3h-3v-3ZM104 29h3v3h-3v-3ZM107 32h3v3h-3v-3ZM104 32h3v3h-3v-3ZM101 29h3v3h-3v-3ZM104 26h3v3h-3v-3ZM110 29h3v3h-3v-3ZM110 32h3v3h-3v-3ZM110 35h3v3h-3v-3ZM101 26h3v3h-3v-3ZM107 35h3v3h-3v-3ZM107 38h3v3h-3v-3ZM104 35h3v3h-3v-3ZM104 38h3v3h-3v-3ZM104 41h3v3h-3v-3ZM101 35h3v3h-3v-3ZM101 32h3v3h-3v-3ZM101 41h3v3h-3v-3ZM101 38h3v3h-3v-3ZM101 44h3v3h-3v-3ZM101 29h-3v3h3v-3ZM101 35h-3v3h3v-3ZM101 32h-3v3h3v-3ZM101 41h-3v3h3v-3ZM101 38h-3v3h3v-3ZM101 44h-3v3h3v-3ZM101 47h-3v3h3v-3Z"/><path fill="#000" d="M52 26h-3v3h3v-3ZM55 26h-3v3h3v-3ZM49 29h-3v3h3v-3ZM49 32h-3v3h3v-3ZM49 35h-3v3h3v-3ZM58 26h-3v3h3v-3ZM52 38h-3v3h3v-3ZM55 41h-3v3h3v-3Z"/><path fill="red" d="M58 35h-3v3h3v-3Z"/><path fill="#000" d="M58 44h-3v3h3v-3ZM67 26h3v3h-3v-3ZM64 26h3v3h-3v-3ZM70 29h3v3h-3v-3ZM70 32h3v3h-3v-3ZM70 35h3v3h-3v-3ZM61 26h3v3h-3v-3ZM67 38h3v3h-3v-3ZM64 41h3v3h-3v-3Z"/><path fill="red" d="M61 35h3v3h-3v-3Z"/><path fill="#000" d="M61 44h3v3h-3v-3ZM61 29h-3v3h3v-3Z"/><path fill="red" d="M61 35h-3v3h3v-3ZM61 32h-3v3h3v-3ZM61 38h-3v3h3v-3Z"/><path fill="#000" d="M61 47h-3v3h3v-3ZM12 26H9v3h3v-3ZM15 26h-3v3h3v-3ZM9 29H6v3h3v-3ZM9 32H6v3h3v-3ZM9 35H6v3h3v-3ZM18 26h-3v3h3v-3ZM12 38H9v3h3v-3ZM15 41h-3v3h3v-3ZM18 44h-3v3h3v-3ZM27 26h3v3h-3v-3ZM24 26h3v3h-3v-3ZM30 29h3v3h-3v-3ZM30 32h3v3h-3v-3ZM30 35h3v3h-3v-3ZM21 26h3v3h-3v-3ZM27 38h3v3h-3v-3ZM24 41h3v3h-3v-3ZM21 44h3v3h-3v-3ZM21 29h-3v3h3v-3ZM21 47h-3v3h3v-3Z"/></svg>